<?xml version="1.0" standalone="no"?>
<!DOCTYPE svg PUBLIC "-//W3C//DTD SVG 20010904//EN"
 "http://www.w3.org/TR/2001/REC-SVG-20010904/DTD/svg10.dtd">
<svg version="1.0" xmlns="http://www.w3.org/2000/svg"
 width="600.000000pt" height="814.000000pt" viewBox="0 0 600.000000 814.000000"
 preserveAspectRatio="xMidYMid meet">
<metadata>
Created by potrace 1.16, written by Peter Selinger 2001-2019
</metadata>
<g transform="translate(0.000000,814.000000) scale(0.100000,-0.100000)"
fill="#000000" stroke="none">
<path d="M2989 7401 c-91 -29 -136 -118 -109 -216 18 -66 57 -97 132 -106 77
-9 119 6 148 53 31 52 27 68 -18 68 -31 0 -43 -6 -60 -30 -28 -37 -64 -39 -97
-5 -35 34 -35 112 -2 143 33 31 82 29 103 -3 13 -20 25 -25 55 -25 43 0 48 10
27 55 -23 50 -118 85 -179 66z"/>
<path d="M3480 7401 c-73 -23 -110 -78 -110 -163 0 -102 51 -159 147 -166 48
-3 64 0 92 20 52 35 76 82 75 149 -1 95 -50 152 -139 163 -22 3 -51 1 -65 -3z
m99 -97 c36 -46 23 -134 -23 -155 -59 -27 -113 27 -103 103 7 52 32 78 73 78
23 0 38 -7 53 -26z"/>
<path d="M4433 7391 c-44 -21 -63 -45 -63 -84 0 -44 36 -75 111 -97 70 -21 92
-41 70 -63 -15 -15 -84 -14 -89 1 -9 27 -35 43 -64 38 -42 -6 -44 -11 -25 -52
29 -59 131 -83 212 -50 40 17 55 42 55 94 0 50 -21 70 -108 98 -51 16 -67 26
-67 40 0 29 60 32 77 5 18 -29 88 -30 88 -2 0 30 -38 70 -78 81 -51 14 -71 12
-119 -9z"/>
<path d="M1352 7358 c3 -32 5 -33 51 -36 l47 -3 0 -125 0 -124 45 0 45 0 0
125 0 125 45 0 c45 0 45 0 45 35 l0 35 -141 0 -140 0 3 -32z"/>
<path d="M1680 7230 l0 -160 130 0 130 0 0 35 0 35 -90 0 -90 0 0 30 0 30 80
0 80 0 0 35 0 35 -80 0 c-78 0 -80 1 -80 25 0 24 2 24 88 27 l87 3 3 33 3 32
-130 0 -131 0 0 -160z"/>
<path d="M1980 7230 l0 -160 40 0 40 0 0 90 c0 50 3 90 8 90 4 0 30 -40 57
-90 l50 -90 42 0 43 0 1 53 c1 123 1 155 0 210 l-1 57 -41 0 -40 0 3 -90 c2
-50 1 -90 -2 -90 -3 0 -28 41 -55 90 l-50 90 -47 0 -48 0 0 -160z"/>
<path d="M2300 7355 l0 -35 50 0 50 0 0 -125 0 -125 40 0 40 0 0 125 0 125 50
0 50 0 0 35 0 35 -140 0 -140 0 0 -35z"/>
<path d="M2608 7237 c-32 -85 -58 -156 -58 -160 0 -4 19 -7 43 -7 38 0 44 3
54 30 11 28 15 30 63 30 48 0 52 -2 63 -30 10 -27 16 -30 55 -30 31 0 43 4 40
13 -2 6 -29 78 -59 160 l-54 147 -45 0 -45 0 -57 -153z"/>
<path d="M3230 7230 l0 -160 45 0 45 0 0 160 0 160 -45 0 -45 0 0 -160z"/>
<path d="M3730 7231 l0 -161 40 0 39 0 3 98 3 97 53 -97 53 -98 45 0 44 0 0
160 0 160 -40 0 -40 0 0 -97 0 -98 -53 95 -54 95 -46 3 -47 3 0 -160z"/>
<path d="M4070 7230 l0 -160 130 0 130 0 0 35 0 34 -87 3 c-88 3 -88 3 -91 31
l-3 27 80 0 81 0 0 35 0 34 -77 3 c-72 3 -78 5 -81 26 -3 21 0 22 70 23 106 2
103 1 106 37 l3 32 -130 0 -131 0 0 -160z"/>
<path d="M1780 6070 c-19 -12 -20 -31 -2 -49 12 -12 10 -16 -10 -27 -34 -19
-44 -17 -23 6 10 11 13 20 7 20 -6 0 -14 -5 -17 -10 -4 -6 -10 -8 -15 -5 -11
7 -26 -14 -34 -48 -4 -15 -10 -25 -15 -22 -5 2 -8 -6 -7 -20 l1 -24 21 24 c12
14 31 25 42 25 30 0 35 -15 5 -17 -26 -1 -43 -17 -43 -42 0 -10 6 -8 20 7 22
23 40 29 40 12 0 -5 10 -10 21 -10 19 0 20 2 8 17 -13 15 -12 16 6 8 11 -5 37
-9 57 -9 20 1 35 -2 33 -5 -2 -4 3 -15 11 -25 11 -16 16 -17 29 -6 8 7 12 17
9 22 -3 5 1 17 9 26 22 25 41 102 28 115 -7 7 -8 2 -4 -13 5 -18 3 -21 -7 -15
-9 6 -12 4 -8 -7 4 -8 2 -21 -3 -29 -7 -11 -9 -10 -10 6 -1 11 -1 23 0 28 3
18 -11 4 -25 -25 -9 -20 -13 -24 -10 -11 7 35 -10 37 -24 3 -15 -35 -26 -38
-33 -9 -4 16 -10 19 -28 14 -22 -7 -22 -7 -6 10 19 18 18 40 0 40 -6 0 -15 3
-19 8 -4 4 -1 7 7 7 8 0 15 9 15 20 0 22 -4 24 -26 10z"/>
<path d="M1961 5898 c-1 -10 -5 -18 -9 -18 -5 0 -15 -11 -22 -25 -12 -22 -11
-27 4 -44 17 -19 17 -20 -13 -19 -17 1 -28 4 -26 8 8 14 -35 18 -72 8 -20 -5
-47 -8 -60 -5 -13 2 -26 0 -29 -4 -3 -5 4 -9 15 -9 13 0 21 -7 21 -17 0 -15 2
-16 10 -3 6 9 10 10 10 3 0 -6 -4 -14 -9 -17 -4 -3 -11 -19 -14 -36 -5 -21
-11 -28 -22 -24 -8 3 -15 1 -15 -5 0 -6 5 -11 10 -11 6 0 10 -8 11 -17 0 -12
5 -9 13 10 l12 28 11 -24 c7 -15 8 -29 1 -40 -11 -20 -5 -22 14 -4 26 23 77
57 88 57 6 0 22 8 37 17 24 16 26 16 38 0 16 -22 27 -21 48 3 14 16 21 18 36
10 30 -15 49 -12 56 10 4 11 11 17 17 14 6 -4 14 0 19 7 12 20 11 29 -4 29 -7
0 -19 6 -25 13 -7 6 -16 12 -20 12 -4 1 -16 6 -27 12 -11 6 -24 12 -30 14 -5
1 -17 4 -26 6 -10 3 -24 21 -32 41 -8 21 -15 29 -16 20z"/>
<path d="M1860 5388 c-17 -19 -20 -20 -20 -4 0 16 -3 15 -30 -4 -16 -12 -30
-30 -30 -40 0 -23 -38 -34 -42 -11 -3 12 -5 10 -10 -7 -3 -12 -2 -20 3 -16 5
3 9 -8 9 -24 0 -17 -6 -32 -15 -36 -17 -6 -20 -42 -5 -51 6 -4 8 -11 4 -16 -4
-6 -11 -6 -20 2 -8 6 -17 9 -21 5 -3 -3 -1 -6 6 -6 8 0 7 -5 -4 -16 -12 -13
-19 -13 -30 -4 -18 15 -35 5 -35 -21 0 -12 7 -19 20 -19 11 0 20 5 20 10 0 6
4 10 10 10 5 0 8 -8 6 -17 -6 -34 -18 -53 -33 -53 -8 0 -11 -5 -8 -10 3 -6 -1
-13 -9 -16 -9 -3 -16 -17 -16 -31 0 -22 2 -24 15 -13 8 7 15 18 15 25 0 17 58
75 73 74 9 0 9 -2 0 -5 -6 -3 -24 -21 -39 -41 -26 -35 -26 -35 -4 -28 21 7 20
3 -13 -43 -40 -54 -45 -72 -22 -72 20 0 19 -16 -1 -24 -11 -4 -14 -13 -11 -27
3 -11 -5 -38 -19 -62 -27 -48 -33 -83 -9 -51 11 14 14 15 9 3 -3 -10 1 -23 9
-30 11 -10 12 -20 5 -39 -5 -14 -11 -61 -14 -105 -8 -138 -10 -159 -18 -197
-5 -21 -4 -38 0 -38 5 0 10 -21 10 -47 1 -26 7 -49 13 -51 6 -2 11 -13 11 -25
0 -12 8 -31 16 -42 15 -19 16 -18 10 15 -24 140 -29 390 -8 424 3 5 -3 6 -13
2 -18 -6 -18 -6 -2 12 20 22 23 92 5 92 -9 0 -8 4 2 10 13 9 13 11 0 20 -9 6
-10 10 -3 10 11 0 29 55 24 74 -1 5 4 13 11 17 9 6 8 9 -6 9 -17 0 -18 1 -3
18 8 9 17 26 19 37 1 10 11 28 22 38 15 16 16 21 5 28 -11 7 -10 9 4 9 21 0
22 10 2 36 -19 25 -19 40 0 24 14 -12 20 -7 16 14 -1 5 5 4 13 -3 12 -10 20
-9 43 4 l28 16 -28 -4 c-19 -3 -31 1 -37 14 -14 25 -13 27 12 31 12 2 28 14
34 27 l12 24 4 -23 c3 -27 28 -40 28 -16 0 23 17 20 23 -4 5 -21 31 -27 42
-10 3 6 11 10 17 10 6 0 4 -8 -4 -17 -9 -11 -15 -34 -14 -58 1 -32 5 -40 19
-39 13 2 16 -3 12 -17 -4 -11 -2 -19 4 -19 6 0 12 12 12 28 1 21 3 23 6 6 3
-15 13 -23 32 -26 25 -4 27 -1 23 21 -2 15 -12 32 -21 40 -14 12 -13 13 11 9
19 -4 25 -1 21 9 -3 7 -10 10 -17 6 -12 -8 13 28 29 39 6 5 4 8 -4 8 -8 0 -11
3 -8 6 4 4 13 1 22 -6 12 -10 15 -10 15 3 0 32 -20 69 -34 64 -17 -7 -39 16
-28 29 4 4 -1 2 -10 -5 -10 -7 -18 -10 -18 -5 0 5 -3 20 -7 34 -6 24 -6 24 11
8 14 -14 22 -16 37 -7 13 6 18 17 15 26 -3 8 -6 17 -6 19 0 2 -9 4 -20 4 -11
0 -20 -4 -20 -10 0 -5 -5 -10 -11 -10 -5 0 -8 4 -5 9 4 5 0 12 -6 14 -10 4
-10 6 0 6 6 1 12 6 12 12 0 5 -4 7 -10 4 -5 -3 -10 -1 -10 5 0 6 7 13 15 16 8
4 15 10 15 15 0 5 -10 4 -21 -3 -17 -11 -23 -11 -26 0 -7 19 -23 4 -17 -16 5
-15 4 -15 -6 1 -13 20 -6 52 10 42 5 -3 10 0 10 8 0 12 -20 27 -35 27 -3 0
-13 -10 -25 -22z"/>
<path d="M1974 4855 c-4 -9 -19 -15 -35 -15 -16 0 -29 -4 -29 -10 0 -5 -7 -10
-15 -10 -18 0 -20 -16 -2 -23 6 -3 -3 -6 -22 -6 -28 -1 -33 -4 -28 -21 3 -12
0 -20 -7 -20 -22 0 -58 -32 -48 -42 6 -6 6 -22 0 -45 -5 -19 -7 -41 -4 -49 3
-8 0 -14 -5 -14 -7 0 -9 -11 -7 -25 3 -14 2 -25 -2 -25 -4 0 -11 -7 -14 -16
-3 -8 -2 -12 4 -9 13 8 13 -31 -1 -56 -5 -11 -14 -17 -20 -14 -5 4 -9 1 -9 -4
0 -6 10 -11 21 -11 17 0 19 -3 10 -14 -6 -8 -10 -20 -9 -27 2 -8 -2 -13 -8
-12 -13 2 -10 -62 5 -101 6 -16 16 -49 22 -73 5 -25 16 -52 24 -60 10 -9 13
-24 9 -41 -4 -19 -3 -23 4 -13 5 7 14 11 20 7 6 -3 8 2 5 13 -3 10 0 22 5 25
6 3 8 -2 6 -11 -3 -10 2 -27 11 -38 16 -20 16 -20 12 3 -4 19 -1 22 24 22 16
0 29 5 29 13 0 7 7 4 15 -7 17 -22 20 -21 30 12 5 16 3 22 -7 20 -7 -2 -13 6
-13 17 -1 11 -6 34 -12 50 -15 41 -12 75 7 75 8 0 25 3 38 6 19 5 21 3 15 -12
-3 -11 -11 -22 -17 -26 -13 -8 -19 -88 -7 -88 5 0 11 -9 14 -20 3 -11 1 -20
-5 -20 -6 0 -3 -12 7 -26 9 -14 14 -32 11 -40 -4 -11 -1 -14 12 -11 9 3 29 8
45 11 18 4 27 13 27 26 0 11 7 20 15 20 8 0 22 8 32 18 10 11 33 25 51 33 30
13 33 17 27 45 -6 35 2 49 20 34 9 -8 14 -6 19 5 3 8 16 15 30 15 14 0 28 5
31 10 4 6 15 8 24 5 10 -3 24 2 31 11 21 25 -6 36 -73 30 -41 -4 -57 -2 -55 6
2 6 24 12 49 13 24 1 54 3 66 4 32 2 90 57 98 91 7 33 34 40 59 15 8 -8 19
-15 25 -15 22 0 8 -28 -22 -45 -28 -15 -16 -29 20 -26 38 3 73 -6 73 -20 0 -5
-9 -9 -19 -9 -22 0 -41 -22 -23 -28 6 -2 8 -11 5 -20 -6 -15 -5 -15 10 -3 9 7
14 18 11 23 -4 6 3 5 15 -1 11 -7 22 -22 23 -34 0 -12 2 -26 3 -32 2 -5 3 -18
4 -27 0 -10 9 -25 19 -35 10 -10 23 -30 29 -45 11 -24 9 -29 -19 -52 -25 -20
-29 -28 -19 -40 9 -11 8 -17 -4 -29 -15 -16 -16 -42 -1 -66 5 -8 3 -17 -5 -23
-11 -7 -11 -11 -1 -15 6 -2 12 -9 12 -14 0 -6 -5 -7 -11 -4 -6 5 -9 -9 -8 -40
2 -39 -1 -51 -20 -66 -14 -12 -18 -19 -10 -19 11 0 12 -2 1 -9 -7 -4 -12 -12
-10 -17 1 -5 -3 -18 -9 -29 -6 -11 -14 -41 -18 -67 -4 -26 -11 -46 -15 -43 -4
2 -5 -7 -2 -20 2 -14 1 -33 -3 -42 -9 -21 -8 -35 7 -72 6 -14 12 -48 15 -76 2
-32 10 -54 20 -60 9 -5 25 -18 35 -27 10 -10 24 -18 32 -18 7 0 16 -10 19 -22
5 -19 8 -20 23 -7 15 12 16 12 10 -7 -3 -12 -2 -33 3 -48 9 -23 8 -26 -9 -26
-11 0 -20 -6 -20 -12 -1 -7 -7 -2 -14 11 -11 20 -14 21 -19 7 -4 -10 -3 -14 3
-11 5 3 8 -3 7 -14 0 -11 -10 -22 -20 -25 -10 -2 -21 -14 -24 -25 -6 -23 -18
-27 -28 -11 -4 6 -22 17 -41 25 -19 8 -34 19 -34 25 0 6 -8 10 -17 8 -12 -2
-18 3 -17 14 1 10 -4 14 -12 11 -8 -3 -14 1 -14 10 0 10 -7 13 -24 10 -24 -5
-39 16 -42 57 -2 35 -27 78 -47 84 -17 4 -19 8 -9 18 6 6 12 22 12 35 0 22
-13 28 -50 23 -12 -1 -13 1 -2 11 16 17 15 24 -5 45 -10 9 -19 35 -20 58 -2
22 -8 45 -14 50 -7 8 -9 7 -7 -3 2 -8 -4 -16 -13 -18 -12 -3 -15 3 -11 27 3
20 -1 37 -12 49 -9 10 -13 22 -9 26 5 5 0 3 -9 -4 -16 -12 -18 -10 -18 18 0
29 -7 36 -38 32 -7 -1 -15 5 -18 14 -3 8 -12 15 -20 15 -8 0 -14 10 -14 24 0
19 -6 25 -27 28 -19 2 -29 10 -34 28 -7 24 -7 24 -9 -5 l-2 -30 -14 32 c-9 22
-19 31 -29 27 -9 -4 -18 1 -22 12 -3 11 -13 23 -21 28 -12 7 -12 10 -1 17 12
7 11 9 -1 9 -20 0 -36 -12 -42 -29 -3 -12 -6 -11 -11 3 -5 13 -1 19 13 23 25
7 26 23 2 23 -22 0 -45 -38 -40 -66 2 -10 -2 -19 -9 -19 -17 0 -29 -15 -12
-15 11 0 14 -10 11 -40 -2 -23 0 -40 6 -40 5 0 10 -24 9 -52 0 -29 3 -74 7
-100 7 -40 5 -49 -8 -54 -10 -4 -16 -18 -16 -37 0 -43 -12 -26 -17 25 -4 27
-13 48 -27 59 -12 9 -23 29 -24 45 -1 15 -7 31 -13 34 -5 4 -11 25 -12 48 -1
23 -7 44 -14 46 -8 3 -13 22 -13 48 l0 42 -20 -22 c-24 -26 -32 -28 -24 -7 4
8 9 15 13 15 3 0 6 34 7 75 0 41 -3 72 -8 69 -4 -3 -8 -17 -8 -32 -1 -23 -4
-21 -24 22 -16 32 -23 59 -19 80 3 20 -1 38 -12 51 -16 20 -16 20 -10 -2 4
-13 2 -23 -3 -23 -5 0 -12 14 -16 31 -8 43 -6 58 4 34 6 -15 9 -7 9 30 0 45
-26 145 -43 162 -3 3 -6 16 -6 29 0 12 -7 35 -15 50 -14 27 -15 27 -15 7 0
-14 -6 -23 -15 -23 -18 0 -19 11 -4 43 8 17 8 30 1 43 -9 17 -11 16 -22 -11
-7 -17 -17 -39 -23 -50 -6 -11 -19 -36 -29 -55 -32 -60 -19 -4 17 79 19 43 35
85 35 92 0 7 11 -2 25 -21 14 -19 25 -29 25 -23 0 7 -4 14 -9 17 -4 3 -11 40
-15 82 -4 43 -14 90 -22 105 -8 15 -14 39 -14 54 0 20 -5 25 -24 25 -29 0 -41
-14 -54 -63 -8 -30 -7 -46 5 -75 13 -30 14 -60 9 -159 -3 -67 -9 -137 -11
-155 -4 -27 -4 -29 5 -13 9 18 10 17 5 -5 -14 -77 -17 -141 -6 -153 6 -8 8
-16 5 -20 -9 -9 7 -87 17 -87 6 0 7 5 3 12 -4 7 -3 8 4 4 14 -9 16 -43 2 -48
-6 -2 -4 -28 6 -68 18 -78 34 -100 34 -46 0 47 18 85 31 65 5 -8 9 -25 9 -39
0 -14 9 -39 20 -57 13 -21 16 -35 9 -39 -16 -10 -43 -76 -40 -99 3 -31 22 -75
32 -75 5 0 9 -9 9 -20 0 -11 6 -20 14 -20 14 0 26 -41 26 -90 0 -15 9 -39 20
-53 11 -14 20 -30 20 -35 0 -29 64 -15 92 21 l17 22 12 -30 c7 -17 13 -35 14
-41 12 -55 38 -124 46 -124 6 0 8 -7 5 -17 -4 -9 2 -35 13 -57 11 -23 25 -56
32 -73 6 -18 15 -33 20 -33 5 0 9 -7 9 -15 0 -20 27 -74 47 -93 8 -8 12 -21 9
-28 -3 -8 -1 -14 4 -14 6 0 10 -5 10 -11 0 -11 28 -76 67 -154 15 -31 24 -66
24 -90 -3 -96 -20 -302 -28 -340 -2 -11 -8 -47 -13 -80 -5 -35 -16 -65 -26
-72 -9 -6 -13 -16 -9 -22 3 -6 1 -11 -4 -11 -6 0 -11 -7 -11 -15 0 -8 -4 -15
-9 -15 -5 0 -7 -8 -4 -18 3 -12 -1 -19 -11 -19 -22 0 -20 38 4 111 24 70 38
196 23 196 -15 0 -88 -82 -123 -137 -29 -45 -60 -131 -66 -185 -2 -15 -9 -47
-15 -70 -6 -24 -14 -59 -17 -78 -5 -22 -14 -36 -26 -38 -14 -3 -17 0 -11 17 4
13 2 21 -6 21 -25 0 -3 96 45 195 52 109 91 169 151 234 30 32 35 42 20 38
-190 -49 -299 -106 -409 -215 -46 -45 -89 -96 -96 -112 -7 -17 -18 -30 -24
-30 -6 -1 -1 -9 12 -20 22 -18 22 -19 5 -54 -15 -33 -32 -47 -34 -28 0 4 -2
19 -4 34 -2 16 1 28 6 28 5 0 9 5 9 10 0 6 -8 5 -20 -2 -17 -11 -22 -10 -35 9
-14 20 -17 21 -42 8 -19 -10 -31 -11 -40 -3 -7 5 -25 7 -40 3 -33 -8 -85 -44
-79 -54 7 -11 -6 -25 -36 -38 -16 -7 -28 -8 -30 -3 -2 6 -23 -4 -48 -20 -25
-16 -52 -30 -60 -30 -42 -1 -63 -49 -22 -51 10 0 6 -5 -11 -11 -34 -12 -25
-30 11 -22 22 5 25 4 14 -7 -19 -20 -15 -29 14 -29 21 0 25 -4 21 -19 -3 -12
1 -22 9 -25 16 -6 19 -36 4 -36 -5 0 -10 8 -10 17 0 9 -2 14 -5 11 -4 -3 -3
-17 1 -32 7 -28 34 -36 34 -10 0 9 7 14 18 12 12 -2 16 -11 14 -27 -2 -13 2
-28 10 -33 10 -7 9 -10 -5 -19 -9 -6 -15 -15 -12 -20 4 -5 11 -6 17 -3 7 5 9
-2 4 -22 -4 -16 -5 -26 -1 -23 8 9 55 -34 55 -50 0 -14 13 -14 27 0 7 7 9 3 6
-15 -7 -35 -27 -39 -54 -10 -12 13 -28 24 -35 24 -16 0 -114 101 -114 118 0 6
-4 12 -10 12 -5 0 -10 7 -10 15 0 9 -7 27 -16 40 -9 13 -17 30 -18 37 -9 49
-30 97 -38 86 -15 -24 -8 -52 28 -126 55 -112 195 -246 273 -263 20 -4 47 -11
60 -15 18 -5 23 -4 19 7 -2 8 -21 15 -41 17 -32 3 -36 6 -35 33 1 31 15 39 24
14 8 -20 24 -19 24 2 0 9 9 27 21 39 11 12 21 28 22 35 2 8 7 14 12 14 10 0
12 -6 22 -57 3 -15 11 -33 19 -39 24 -20 16 -45 -17 -55 -29 -8 -40 -32 -12
-26 7 2 13 -2 13 -8 0 -5 5 -10 11 -10 6 0 9 9 6 20 -6 22 8 28 16 8 3 -8 6
-6 6 5 1 9 5 17 10 17 5 0 7 -9 4 -20 -3 -11 -9 -20 -14 -20 -5 0 -9 -7 -9
-15 0 -8 4 -15 10 -15 5 0 7 -7 4 -15 -4 -8 -10 -15 -16 -15 -5 0 -6 5 -3 11
4 6 -3 5 -15 -3 -19 -11 -21 -18 -14 -58 10 -66 11 -259 0 -252 -5 3 -6 -7 -2
-21 4 -18 1 -29 -9 -35 -12 -6 -19 -35 -26 -103 -28 -273 -30 -281 -57 -272
-9 3 -21 11 -27 18 -5 6 -22 19 -36 28 -14 10 -39 43 -54 74 -30 59 -85 137
-167 238 -27 33 -61 75 -76 94 -15 19 -33 40 -40 47 -7 8 -11 14 -8 14 6 0
-16 28 -42 56 -7 8 -10 14 -5 14 4 0 1 6 -7 13 -8 7 -35 37 -60 67 -24 30 -58
66 -74 80 -16 14 -40 35 -53 48 -13 12 -28 22 -33 22 -6 0 -10 4 -10 8 0 15
-61 54 -75 48 -10 -3 -11 -12 -5 -33 5 -15 19 -64 31 -108 24 -89 45 -141 59
-150 35 -22 117 -231 174 -445 13 -53 38 -131 54 -175 38 -102 121 -257 135
-252 6 2 15 17 21 34 6 17 16 28 24 26 16 -6 16 14 0 20 -7 3 5 6 27 6 35 1
43 -4 67 -38 16 -22 28 -43 28 -48 0 -5 5 -14 12 -21 7 -7 13 -42 14 -78 1
-37 6 -69 12 -73 12 -8 22 -61 11 -61 -4 0 -2 -13 4 -30 6 -16 15 -30 19 -30
12 0 10 24 -4 38 -8 8 -8 15 0 25 7 8 9 27 6 46 -4 18 -2 31 3 31 6 0 8 11 5
25 -2 15 0 25 7 25 6 0 11 8 12 18 0 13 3 11 9 -6 8 -19 13 -21 30 -12 12 7
20 21 20 38 1 24 5 76 25 282 8 92 42 284 61 355 19 68 51 227 74 360 10 61
28 155 39 209 11 55 18 103 15 108 -9 14 5 42 26 56 26 16 57 1 72 -36 9 -25
11 -26 18 -7 4 11 5 27 3 35 -3 9 0 7 7 -3 7 -11 9 -33 5 -54 -4 -24 -3 -33 4
-28 7 4 11 -5 11 -22 0 -16 7 -39 16 -51 8 -12 13 -22 9 -22 -3 0 4 -19 16
-42 24 -48 66 -94 75 -85 4 4 15 2 26 -4 13 -7 17 -16 12 -31 -5 -18 -3 -20
15 -15 11 3 24 1 27 -4 3 -5 9 -7 14 -4 5 3 12 -7 16 -22 20 -89 26 -104 39
-99 7 2 16 -1 18 -8 3 -7 15 -16 27 -19 26 -7 40 21 19 37 -21 16 -24 76 -4
76 25 0 91 -37 112 -62 25 -31 95 -85 130 -100 15 -7 32 -18 36 -25 4 -7 14
-13 21 -13 8 0 44 -32 81 -71 51 -55 78 -94 112 -168 24 -53 53 -112 63 -131
21 -42 40 -133 41 -204 0 -38 3 -46 9 -31 14 32 11 174 -5 258 -8 43 -15 101
-15 129 0 27 -9 70 -20 96 -25 61 -50 167 -43 191 2 10 -7 44 -21 74 -25 56
-48 132 -71 240 -19 87 -3 57 42 -78 54 -160 96 -279 101 -285 3 -3 7 1 9 8 4
10 8 10 19 1 21 -17 35 0 41 52 3 24 11 49 18 54 15 12 55 85 55 100 0 6 13
18 29 28 34 20 45 22 35 5 -6 -10 -5 -10 7 -1 11 9 25 10 48 3 28 -8 31 -7 21
5 -8 10 -9 15 -2 15 6 0 13 -9 17 -19 6 -21 53 -56 62 -47 4 3 13 -4 21 -15
13 -19 16 -20 24 -5 7 12 16 15 31 10 20 -6 21 -5 7 11 -14 17 -13 18 3 12 12
-5 17 -1 17 13 0 30 -1 35 -10 33 -4 -1 -5 9 -2 22 2 15 0 25 -7 25 -6 0 -11
5 -11 10 0 6 7 10 15 10 9 0 12 6 9 15 -3 8 1 22 10 31 13 12 14 19 5 30 -6 8
-15 11 -20 8 -5 -3 -9 0 -9 6 0 6 8 9 18 6 13 -4 18 -1 18 14 0 13 -5 19 -13
16 -15 -6 -18 10 -4 18 11 7 33 -18 24 -27 -3 -4 -1 -7 5 -7 6 0 10 -8 10 -17
-1 -30 19 -70 59 -113 20 -23 38 -49 39 -57 4 -22 35 -53 54 -53 17 0 50 -53
50 -79 0 -6 4 -11 10 -11 5 0 7 7 4 15 -8 19 6 19 34 -1 17 -12 20 -19 12 -29
-13 -15 1 -28 22 -20 8 3 23 -7 36 -25 14 -18 32 -30 46 -30 33 0 35 -6 21
-62 -15 -54 -19 -208 -7 -208 5 0 24 11 43 25 l34 26 3 -87 c2 -48 -1 -91 -5
-95 -4 -4 -44 1 -88 12 -44 10 -86 19 -92 19 -25 0 -13 -19 16 -25 45 -10 101
-84 106 -139 2 -17 3 -136 4 -263 l1 -233 23 0 22 0 1 203 c1 215 17 394 59
625 13 75 27 158 30 184 3 27 9 48 13 48 4 0 21 11 37 25 25 21 27 24 10 23
-31 -2 -105 33 -105 51 0 11 -3 12 -11 4 -9 -9 -18 -8 -35 4 -15 9 -24 11 -24
4 0 -6 6 -11 14 -11 23 0 30 -20 13 -37 -17 -18 -44 -11 -53 12 -8 19 23 55
47 55 10 0 21 5 25 12 5 8 -3 9 -29 5 -21 -3 -37 -2 -37 2 0 5 -10 6 -23 4
-36 -7 -54 21 -39 60 14 36 9 45 -14 26 -16 -13 -17 -12 -12 8 4 16 -3 28 -28
50 -37 30 -43 53 -19 73 13 11 13 14 -2 26 -10 7 -26 14 -35 14 -10 0 -18 7
-18 15 0 9 -7 18 -16 22 -12 4 -14 14 -9 39 3 21 2 34 -5 34 -20 0 -10 16 23
35 25 15 28 20 14 23 -10 2 -34 18 -53 36 -36 33 -36 33 -20 65 10 19 24 31
36 31 11 0 20 5 20 10 0 6 -11 10 -24 10 -13 0 -29 7 -36 15 -7 9 -19 14 -25
11 -7 -2 -17 6 -24 20 -6 13 -18 24 -27 24 -11 0 -14 5 -10 16 3 9 6 17 6 19
0 13 40 -11 46 -28 6 -18 8 -14 11 20 4 37 8 42 33 48 43 9 47 25 7 25 -65 0
-106 66 -76 122 15 27 5 33 -17 11 -11 -11 -31 -24 -45 -30 -25 -11 -26 -10
-21 10 l5 21 -28 -22 c-32 -26 -77 -29 -99 -7 -20 20 -36 79 -36 133 0 23 -4
42 -10 42 -5 0 -10 -5 -10 -12 0 -8 -3 -9 -10 -2 -14 14 -16 87 -2 92 7 2 12
18 13 35 0 18 9 50 19 72 l19 40 1 -30 c3 -42 0 -59 -13 -67 -7 -4 -7 -11 2
-22 7 -8 11 -21 8 -28 -2 -7 2 -28 9 -47 17 -40 17 -44 4 -36 -6 4 -7 -6 -4
-25 4 -19 2 -30 -5 -30 -6 0 -11 -7 -11 -15 0 -8 5 -15 10 -15 6 0 10 4 10 8
0 14 53 35 80 33 33 -4 59 -18 92 -49 21 -19 38 -25 73 -25 25 0 51 5 57 11 9
9 4 12 -24 12 -65 0 -109 72 -78 130 11 21 63 41 88 34 14 -5 15 -4 2 5 -8 6
-22 11 -31 11 -21 0 -56 39 -64 72 -4 14 -2 37 5 50 11 22 10 22 -8 -2 -16
-20 -29 -25 -64 -25 -37 0 -43 3 -40 19 3 15 -1 17 -23 12 -20 -5 -31 -1 -50
20 -28 30 -31 50 -13 89 11 24 38 35 38 15 0 -6 14 -9 32 -8 18 2 33 -3 36
-10 3 -9 8 -10 16 -3 9 8 24 -2 55 -34 37 -39 46 -44 74 -39 60 11 64 15 27
30 -57 24 -80 52 -80 96 0 38 0 39 -22 24 -29 -21 -44 -20 -27 1 13 15 12 15
-8 5 -39 -21 -90 -15 -122 16 -46 41 -50 75 -13 112 26 25 38 30 80 30 56 0
102 -28 102 -62 0 -12 3 -18 7 -15 3 4 12 2 20 -4 10 -9 13 -8 13 5 0 10 5 14
11 10 8 -4 7 0 -1 15 -6 12 -10 34 -8 49 2 22 9 27 33 30 51 4 55 5 55 14 0
19 54 2 81 -24 15 -16 37 -28 48 -28 11 0 22 -4 25 -9 3 -5 27 -14 53 -21 26
-6 52 -17 56 -23 6 -9 10 -9 14 1 2 6 13 12 24 12 26 0 24 7 -16 51 -19 22
-35 46 -35 54 0 17 -39 55 -57 55 -7 0 -12 -3 -12 -7 6 -37 -17 -45 -31 -10
-5 12 -9 16 -9 10 -1 -16 -28 -17 -33 -2 -2 6 -15 1 -31 -11 -24 -19 -26 -19
-20 -3 6 16 5 16 -10 4 -10 -8 -20 -11 -23 -8 -4 3 -13 -1 -22 -9 -13 -14 -16
-14 -23 -1 -5 8 -22 20 -38 27 -21 8 -31 21 -35 43 -4 22 -19 41 -44 58 -55
39 -100 49 -158 34 -51 -13 -72 -3 -40 20 26 20 20 38 -11 32 -32 -6 -58 5
-67 28 -4 12 0 14 22 9 26 -7 27 -6 10 13 -10 11 -18 23 -18 26 0 15 41 6 59
-12 19 -19 19 -20 -12 -35 -18 -9 -26 -16 -19 -16 7 0 23 5 35 11 16 9 22 9
25 0 2 -6 8 -9 13 -6 11 8 -12 45 -28 45 -19 0 -16 14 7 28 12 7 18 18 14 24
-5 7 -2 9 9 5 13 -5 46 28 53 53 1 3 4 19 8 35 12 50 52 84 104 88 12 0 22 7
22 14 0 7 5 13 10 13 19 0 10 49 -10 60 -11 6 -20 16 -20 23 0 7 -13 21 -30
30 -16 10 -30 25 -30 33 0 8 -6 17 -13 20 -8 3 -14 11 -14 19 0 22 -56 81 -89
93 -46 18 -69 15 -90 -13 -10 -14 -26 -25 -36 -25 -9 0 -18 -6 -21 -12 -2 -7
-8 -10 -12 -6 -15 15 49 140 92 181 24 22 43 48 43 57 0 10 6 23 14 29 20 16
49 80 53 115 2 16 7 34 12 40 14 18 4 204 -18 316 -24 119 -30 180 -19 180 4
0 5 6 2 14 -3 7 4 30 15 50 11 19 18 43 15 51 -13 32 -144 72 -185 57 -15 -6
-32 -4 -50 5 -16 8 -45 17 -66 20 -21 3 -45 11 -53 18 -8 7 -49 16 -90 20 -41
4 -82 11 -92 16 -10 5 -30 9 -45 8 -26 -1 -152 39 -163 52 -3 3 -31 6 -63 5
-31 -1 -57 2 -57 7 0 13 -21 7 -26 -8z m395 -1995 c15 0 5 -119 -12 -137 -8
-10 -16 -22 -17 -28 -1 -5 -6 -9 -11 -8 -4 2 -11 -14 -15 -35 -10 -55 -44 -88
-44 -42 0 11 -7 20 -15 20 -18 0 -19 11 -2 29 10 11 9 13 -5 8 -10 -4 -17 -3
-17 1 1 4 0 12 -1 17 -2 6 -4 29 -4 53 -1 29 3 42 12 42 9 0 12 6 8 15 -3 9 0
15 9 15 8 0 15 5 15 10 0 6 7 10 15 10 18 0 20 -16 3 -23 -8 -3 -6 -6 5 -6 10
-1 21 9 27 23 5 13 15 26 22 29 9 4 7 6 -4 6 -17 1 -17 2 0 21 l17 21 3 -21
c2 -11 7 -20 11 -20z m553 -477 c10 -9 18 -22 18 -29 0 -8 6 -11 14 -8 9 4 20
-5 30 -24 14 -27 14 -31 -3 -46 -10 -9 -25 -14 -33 -11 -8 3 -28 -1 -44 -10
-41 -21 -60 -19 -83 11 -36 46 -26 98 23 120 41 18 56 17 78 -3z m-72 -418 c0
-7 -4 -15 -10 -17 -14 -4 0 -48 15 -48 20 0 29 38 14 56 -10 13 -10 17 2 25
22 14 37 11 85 -17 50 -29 53 -40 21 -70 -44 -41 -74 -50 -67 -19 10 47 10 47
-21 20 -51 -42 -89 -32 -104 28 -7 28 10 62 26 51 5 -3 9 -1 9 5 0 6 7 8 15 5
8 -4 15 -12 15 -19z m228 -384 c-6 -11 -25 -22 -41 -25 -16 -3 -38 -17 -49
-31 -28 -36 -72 -34 -88 4 -25 60 17 104 72 77 36 -18 41 -19 34 -7 -4 5 -3
16 0 25 5 14 11 13 45 -4 34 -18 38 -23 27 -39z m-1082 -37 c41 -43 45 -85 11
-135 -53 -80 -157 -29 -157 76 1 91 84 125 146 59z"/>
<path d="M3548 4755 c-3 -3 -47 -8 -98 -10 -85 -3 -95 -6 -122 -32 -28 -26
-30 -26 -24 -5 5 13 3 22 -3 22 -6 0 -11 -6 -11 -12 0 -10 -2 -10 -8 0 -6 9
-13 7 -29 -8 -22 -20 -22 -20 -26 3 l-4 22 -8 -22 c-8 -26 -25 -31 -25 -8 0 8
-4 15 -10 15 -5 0 -10 -7 -10 -15 0 -20 -7 -19 -33 5 -12 12 -23 16 -25 11 -2
-5 -9 -8 -16 -5 -8 3 -16 -2 -20 -11 -3 -9 -11 -13 -17 -9 -12 7 -6 -25 14
-64 12 -24 56 -49 97 -54 17 -2 25 -9 25 -23 0 -12 8 -22 20 -25 11 -3 21 -11
21 -18 1 -7 2 -16 3 -21 1 -10 40 -26 54 -23 10 3 9 -5 -5 -27 -20 -32 -3 -51
45 -51 48 0 71 17 61 44 -5 12 -2 15 10 10 10 -4 16 -1 16 9 0 19 26 29 37 14
5 -7 15 -25 23 -41 18 -34 46 -46 100 -42 42 3 68 15 34 17 -33 1 -76 8 -81
13 -3 2 0 13 5 23 10 17 11 17 17 1 6 -14 15 -16 53 -11 43 6 45 5 40 -15 -5
-17 -2 -22 13 -22 24 0 56 35 70 77 6 18 13 33 16 33 17 0 63 -44 63 -61 0
-12 7 -19 20 -19 24 0 26 -15 4 -24 -24 -9 -8 -20 32 -21 25 -1 33 2 30 12 -4
8 3 13 18 13 49 0 48 23 -2 64 -63 51 -125 81 -219 107 -43 12 -80 23 -82 25
-2 2 13 11 35 20 74 31 196 3 264 -59 19 -18 28 -24 21 -14 -15 19 -9 22 20 7
10 -6 19 -7 19 -2 0 11 -67 72 -79 72 -5 0 -11 4 -13 8 -1 4 -25 17 -53 29
-49 21 -49 22 -25 32 18 7 20 10 7 10 -11 1 -15 5 -11 13 5 7 2 9 -9 5 -16 -6
-138 12 -147 22 -3 4 -14 6 -25 7 -11 0 -29 4 -41 7 -11 4 -23 5 -26 2z"/>
<path d="M3579 1578 c-21 -40 -90 -118 -105 -118 -12 0 -12 -4 1 -24 16 -24 6
-44 -15 -31 -5 3 -10 1 -10 -5 0 -13 -43 -3 -48 11 -2 5 -13 9 -25 9 -20 1
-21 2 -4 14 23 17 22 30 -2 23 -32 -8 -47 8 -35 40 5 15 12 26 15 23 3 -3 20
7 38 23 18 15 38 27 44 27 8 0 8 3 -1 12 -9 9 -20 7 -47 -8 -19 -10 -35 -24
-35 -30 0 -12 -38 -50 -47 -47 -3 1 -9 7 -14 14 -4 8 -11 10 -15 6 -4 -3 -1
-14 6 -22 11 -13 15 -13 23 -3 6 9 7 8 3 -5 -7 -23 48 -107 70 -107 8 0 13 -4
10 -9 -3 -5 1 -14 9 -21 13 -11 14 -10 9 3 -5 14 -2 14 20 4 14 -7 26 -15 26
-19 0 -5 8 -8 19 -8 20 0 44 -53 57 -123 3 -20 10 -40 15 -43 5 -3 9 -14 9
-25 0 -10 4 -19 10 -19 11 0 2 60 -11 74 -12 13 -11 173 0 195 6 10 6 23 0 32
-7 12 -9 11 -9 -2 0 -9 -7 -20 -16 -23 -22 -8 -24 -5 -17 22 4 15 16 25 34 29
16 3 29 10 29 15 0 6 7 8 15 4 8 -3 15 0 16 7 1 7 4 1 8 -13 5 -17 15 -26 33
-28 24 -3 26 -6 16 -27 -6 -13 -22 -25 -39 -29 -37 -7 -49 -37 -49 -119 1 -81
46 -200 79 -205 25 -4 39 22 22 41 -7 9 -8 24 -2 43 4 16 6 34 4 41 -2 6 1 14
6 18 18 11 12 33 -10 40 -14 5 -18 10 -11 17 6 6 17 5 30 -3 15 -9 22 -28 26
-71 4 -32 4 -63 1 -68 -3 -6 1 -10 9 -10 8 0 17 4 20 9 3 5 25 6 48 4 37 -4
47 -1 72 23 78 77 87 197 20 255 -22 18 -58 33 -50 20 3 -4 -8 -21 -24 -36
-16 -15 -32 -41 -35 -56 -4 -16 -11 -31 -15 -34 -5 -3 -5 -17 1 -32 7 -19 6
-29 -2 -37 -9 -8 -10 -8 -5 2 4 7 1 12 -8 12 -9 0 -16 7 -16 15 0 8 -6 12 -12
10 -7 -3 -22 8 -33 25 -11 16 -26 30 -32 30 -7 0 -13 5 -13 10 0 6 11 10 23
10 16 0 28 -9 36 -26 6 -15 14 -25 16 -22 9 9 -20 58 -38 64 -24 8 -15 29 12
28 14 0 21 5 21 18 0 11 5 16 10 13 6 -3 10 1 10 9 0 9 -4 16 -10 16 -5 0 -10
5 -10 10 0 6 14 10 30 10 28 0 30 2 20 20 -7 14 -7 20 0 20 5 0 10 5 10 10 0
6 -11 10 -25 10 -14 0 -25 -4 -25 -10 0 -5 -4 -10 -10 -10 -5 0 -7 7 -4 15 7
18 -14 47 -27 39 -5 -3 -9 1 -9 9 0 17 -42 47 -64 47 -9 0 -21 -10 -27 -22z"/>
<path d="M2116 581 c-21 -8 -31 -47 -18 -65 5 -6 12 -26 16 -45 5 -28 4 -32
-8 -21 -8 6 -16 21 -18 33 -5 39 -21 18 -22 -29 -1 -50 12 -66 66 -79 29 -7
83 18 93 43 10 26 -3 25 -28 -2 -27 -29 -57 -35 -57 -11 0 8 7 15 15 15 18 0
20 23 4 49 -15 23 7 78 34 85 24 6 13 26 -14 26 -11 0 -17 -4 -14 -10 3 -5 -1
-10 -10 -10 -9 0 -13 -4 -10 -10 3 -5 -1 -10 -9 -10 -19 0 -21 11 -4 28 15 15
8 21 -16 13z"/>
<path d="M2795 512 c-6 -4 -16 -20 -24 -37 -7 -16 -17 -38 -22 -47 -5 -10 -12
-35 -15 -55 -3 -21 -7 -49 -10 -63 -4 -26 -16 -196 -18 -265 -1 -33 2 -40 20
-43 20 -3 21 3 28 97 4 56 14 138 22 183 8 46 19 106 24 133 4 28 11 62 15 78
7 27 0 34 -20 19z"/>
<path d="M1276 399 c-3 -34 -6 -108 -6 -165 0 -114 -5 -102 91 -205 l27 -29
166 0 c159 0 166 1 166 20 0 11 -4 20 -10 20 -5 0 -10 7 -10 15 0 11 11 15 38
16 32 0 29 2 -24 14 -87 19 -121 39 -129 75 -4 16 -12 33 -18 37 -7 5 -32 33
-57 64 -55 67 -201 199 -222 199 -3 0 -8 -28 -12 -61z"/>
<path d="M3687 366 c-20 -8 -44 -20 -53 -27 -27 -22 -54 -87 -54 -129 0 -57
57 -114 124 -123 27 -4 55 -3 64 3 15 8 14 9 -4 10 -32 0 -69 33 -58 51 14 23
13 67 -2 73 -22 8 -16 46 15 104 31 55 28 59 -32 38z"/>
</g>
</svg>
